<svg width="40" height="40" viewBox="0 0 40 40" fill="none" xmlns="http://www.w3.org/2000/svg">
<circle cx="20" cy="20" r="20" fill="white"/>
<g clip-path="url(#clip0_2121_22)">
<path d="M14.6555 16.4342H10.6405C10.4623 16.4342 10.3179 16.5787 10.3179 16.7568V29.6554C10.3179 29.8336 10.4623 29.9779 10.6405 29.9779H14.6555C14.8337 29.9779 14.9781 29.8336 14.9781 29.6554V16.7568C14.9781 16.5787 14.8337 16.4342 14.6555 16.4342Z" fill="#F1875E"/>
<path d="M12.6494 10.022C11.1885 10.022 10 11.2092 10 12.6685C10 14.1285 11.1885 15.3161 12.6494 15.3161C14.1092 15.3161 15.2967 14.1284 15.2967 12.6685C15.2968 11.2092 14.1092 10.022 12.6494 10.022Z" fill="#F1875E"/>
<path d="M24.868 16.1136C23.2555 16.1136 22.0634 16.8068 21.3404 17.5945V16.7568C21.3404 16.5786 21.196 16.4342 21.0178 16.4342H17.1727C16.9945 16.4342 16.8501 16.5786 16.8501 16.7568V29.6554C16.8501 29.8336 16.9945 29.9779 17.1727 29.9779H21.1789C21.3571 29.9779 21.5015 29.8336 21.5015 29.6554V23.2736C21.5015 21.123 22.0856 20.2852 23.5847 20.2852C25.2174 20.2852 25.3471 21.6283 25.3471 23.3842V29.6554C25.3471 29.8336 25.4915 29.978 25.6697 29.978H29.6775C29.8556 29.978 30 29.8336 30 29.6554V22.5803C30 19.3826 29.3903 16.1136 24.868 16.1136Z" fill="#F1875E"/>
</g>
<defs>
<clipPath id="clip0_2121_22">
<rect width="20" height="20" fill="white" transform="translate(10 10)"/>
</clipPath>
</defs>
</svg>
