<svg width="40" height="40" viewBox="0 0 40 40" fill="none" xmlns="http://www.w3.org/2000/svg">
<circle cx="20" cy="20" r="20" fill="white"/>
<path d="M28 29.6677H12C11.4696 29.6677 10.9609 29.457 10.5858 29.0819C10.2107 28.7069 10 28.1982 10 27.6677V16.7167C10.0166 16.3862 10.1138 16.0647 10.283 15.7802C10.4522 15.4958 10.6884 15.257 10.971 15.0847L18.971 10.2847C19.2817 10.0984 19.6372 10 19.9995 10C20.3618 10 20.7173 10.0984 21.028 10.2847L29.028 15.0847C29.629 15.4477 29.998 16.0977 30 16.7997V27.6677C30 28.1982 29.7893 28.7069 29.4142 29.0819C29.0391 29.457 28.5304 29.6677 28 29.6677ZM12 17.5357V27.6677H28V17.5357L20 22.8687L12 17.5357ZM20 11.9997L13.316 16.0097L20 20.4657L26.683 16.0097L20 11.9997Z" fill="#F1875E"/>
</svg>
